<?xml version="1.0" standalone="no"?>
<!DOCTYPE svg PUBLIC "-//W3C//DTD SVG 20010904//EN"
 "http://www.w3.org/TR/2001/REC-SVG-20010904/DTD/svg10.dtd">
<svg fill="#5e17eb"  version="1.0" xmlns="http://www.w3.org/2000/svg"
 width="750.000000pt" height="750.000000pt" viewBox="0 0 750.000000 750.000000"
 preserveAspectRatio="xMidYMid meet">

<g transform="translate(0.000000,750.000000) scale(0.100000,-0.100000)"
fill="#5e17eb" stroke="none">
<path d="M1107 7489 c-43 -4 -120 -19 -173 -33 -511 -137 -874 -565 -924
-1091 -8 -75 -10 -942 -8 -2695 4 -2440 5 -2589 22 -2660 64 -270 168 -463
346 -640 186 -186 406 -301 678 -352 98 -19 5306 -19 5404 0 272 51 492 166
678 352 186 186 301 406 352 678 19 98 19 5306 0 5404 -51 272 -166 492 -352
678 -177 178 -370 282 -640 346 -71 17 -217 18 -2690 20 -1438 1 -2650 -2
-2693 -7z m3592 -1641 c114 -117 236 -244 271 -281 57 -61 78 -75 214 -142
266 -131 573 -292 629 -329 30 -20 73 -57 96 -81 36 -39 41 -50 41 -93 0 -53
-16 -75 -75 -105 -43 -21 -173 -62 -280 -87 -197 -47 -343 -111 -384 -168 -49
-70 -78 -206 -120 -552 -14 -111 -26 -153 -57 -190 -30 -35 -67 -39 -117 -14
-53 28 -194 122 -255 171 -31 25 -62 50 -68 54 -14 11 -102 -24 -264 -105
-194 -96 -326 -181 -404 -260 l-70 -70 -65 24 c-69 24 -205 91 -327 159 -39
22 -74 37 -78 34 -3 -4 -6 -99 -6 -212 -1 -295 -15 -501 -38 -554 -51 -114
-175 -152 -266 -82 -70 53 -74 74 -83 421 -4 170 -6 363 -3 429 3 66 3 123 0
128 -15 18 -215 -66 -335 -141 -97 -61 -204 -177 -250 -270 -50 -101 -65 -167
-65 -285 0 -181 51 -329 167 -482 119 -157 235 -241 423 -306 94 -33 96 -33
285 -34 154 0 204 4 265 19 230 58 355 189 400 420 12 60 20 164 24 306 10
311 33 389 148 495 83 77 278 194 453 271 22 9 43 19 46 21 8 3 163 -108 313
-225 125 -96 281 -230 366 -313 152 -148 165 -184 165 -479 0 -219 -11 -305
-61 -456 -166 -510 -651 -868 -1339 -989 -313 -55 -745 -43 -1102 30 -506 104
-894 361 -1133 750 -268 437 -293 1038 -60 1483 172 329 404 526 742 632 65
20 219 40 315 40 91 0 94 1 130 34 148 132 468 281 743 344 161 38 397 72 502
72 l43 0 64 103 c35 56 97 156 138 223 l74 120 -15 45 c-34 100 -51 313 -36
449 18 163 44 240 82 240 5 0 102 -96 217 -212z m619 130 c14 -14 18 -538 4
-538 -5 0 -62 27 -128 59 -93 47 -133 73 -181 121 -35 34 -63 65 -63 69 0 15
235 237 284 269 54 35 66 38 84 20z m-1723 -2328 c39 -18 93 -43 120 -55 28
-13 62 -27 77 -30 48 -12 50 -19 46 -252 -3 -201 -5 -221 -25 -259 -64 -120
-182 -157 -285 -89 -75 50 -78 65 -78 433 l0 322 38 -19 c20 -10 69 -33 107
-51z"/>
<path d="M5117 5202 c-25 -28 -22 -84 6 -110 13 -12 31 -22 41 -22 26 0 76 55
76 84 0 52 -88 87 -123 48z"/>
<path d="M5085 4924 c-113 -49 -192 -91 -247 -132 -59 -45 -62 -58 -5 -27 64
36 188 73 305 90 l42 7 0 43 c0 24 -4 46 -8 49 -4 2 -44 -11 -87 -30z"/>
</g>
</svg>
