<svg xmlns="http://www.w3.org/2000/svg" height="300" width="300" viewBox="0 0 206 215" fill-rule="evenodd" clip-rule="evenodd" shape-rendering="geometricPrecision" text-rendering="geometricPrecision" image-rendering="optimizeQuality"><defs><style>.prefix__fil0{fill:#000}</style></defs><path class="prefix__fil0" d="M177 5v24l-12-6-6-6c5-4 17-19 18-12zM89 109v27c0 12 15 14 18 1v-20c-4-1-12-5-18-8z"/><path class="prefix__fil0" d="M200 45c-8-5-37-19-37-19-8-9-17-17-25-26-4-4-7 22-2 34-4 7-9 14-13 21-20 0-47 7-62 21-74-4-90 119 5 136 57 11 124-13 113-80-1-8-38-34-38-34s-23 9-28 19c-8 14 11 54-37 53-38-1-61-57-8-72-1 13 0 25 0 38 0 12 15 14 17 1 1-10 0-22 1-33 0 0 22 13 23 10 4-7 27-18 33-20 5 4 9 7 14 10 14 9 7-19 15-34 7-11 52-8 29-25zm-30 6c-4 1-18 7-20 12 3-4 16-7 20-7v-5zm-1-12c-2 0-3 1-3 3s1 4 3 4 4-2 4-4-2-3-4-3z"/></svg>